# xmcd CD database file
#
# Track frame offsets:
#	150
#	26175
#	46800
#	72825
#
# Disc length: 1316 seconds
#
# Revision: 1
# Processed by: cddbd v1.5.1PL0 Copyright (c) Steve Scherf et al.
# Submitted via: freeDBTagger 0.5
#
DISCID=2f052204
DTITLE=椿 - Sea of love
DYEAR=2005
DGENRE=misc
TTITLE0=Sea of love
TTITLE1=Good bye my angel
TTITLE2=Sea of love -English version-
TTITLE3=Sea of love -Original Instrumental-
EXTD=TOCT-4912 05/09/07
EXTT0=
EXTT1=
EXTT2=
EXTT3=
PLAYORDER=
